<svg width="193" height="101" viewBox="0 0 193 101" fill="none" xmlns="http://www.w3.org/2000/svg">
<path d="M96.5 100.926C43.2045 100.926 0 98.4038 0 95.2922C0 92.1806 43.2045 89.6582 96.5 89.6582C149.796 89.6582 193 92.1806 193 95.2922C193 98.4038 149.796 100.926 96.5 100.926Z" fill="#C0C0C0"/>
<path d="M151.855 34.6848C151.855 35.6802 141.657 37.3674 141.498 37.3674C141.338 37.3674 139.353 37.024 139.353 37.024L135.724 37.3674C135.614 37.2559 135.523 37.1263 135.455 36.9842C135.31 36.6814 135.224 36.3537 135.202 36.0186C135.202 35.9191 135.202 35.8146 135.202 35.7001C135.211 34.9046 135.321 34.1135 135.53 33.346C136.275 33.413 137.026 33.3294 137.739 33.1003C138.451 32.8711 139.11 32.5011 139.676 32.0121C140.204 30.7081 140.92 29.2897 141.707 28.6775C141.707 28.6775 148.874 29.1752 150.372 30.0412C151.845 30.9122 151.855 34.6848 151.855 34.6848Z" fill="#E85816"/>
<g opacity="0.2">
<path d="M151.855 34.6848C151.855 35.6802 141.657 37.3674 141.498 37.3674C141.338 37.3674 139.353 37.024 139.353 37.024L135.724 37.3674C135.614 37.2559 135.523 37.1263 135.455 36.9842C135.31 36.6814 135.224 36.3537 135.202 36.0186C135.202 35.9191 135.202 35.8146 135.202 35.7001C135.211 34.9046 135.321 34.1135 135.53 33.346C136.275 33.413 137.026 33.3294 137.739 33.1003C138.451 32.8711 139.11 32.5011 139.676 32.0121C140.204 30.7081 140.92 29.2897 141.707 28.6775C141.707 28.6775 148.874 29.1752 150.372 30.0412C151.845 30.9122 151.855 34.6848 151.855 34.6848Z" fill="black"/>
</g>
<path d="M148.033 34.86C148.033 34.86 142.289 22.6364 119.892 4.55973C119.892 4.55973 71.7443 -2.00501 40.1898 4.63438C40.1898 4.63438 27.4934 22.0889 26.1097 30.8236C24.7261 39.5583 148.033 34.86 148.033 34.86Z" fill="#263238"/>
<g opacity="0.7">
<path d="M57.8832 4.0918C57.505 6.99342 56.7186 14.6282 56.5394 29.3304C74.3871 31.1421 88.084 33.3419 88.084 33.3419C83.9331 17.4801 72.7646 5.29624 72.7646 5.29624C67.8362 4.56671 62.8648 4.16434 57.8832 4.0918Z" fill="white"/>
<path d="M28.1105 27.2358C30.9226 27.3503 33.7446 27.4946 36.5417 27.6738L37.1986 27.7136L38.4329 27.7982L39.0202 27.8331C44.2611 28.1865 49.4173 28.6294 54.2998 29.1072C54.4889 23.0053 54.9468 11.6875 55.9571 4.0826C50.884 4.04433 45.8169 4.4423 40.812 5.27211L40.6477 5.30197C40.6463 5.31187 40.6463 5.32194 40.6477 5.33184C40.5084 5.50106 40.369 5.68023 40.2297 5.82955L40.0704 6.03858C32.8387 15.3158 28.1105 27.2358 28.1105 27.2358Z" fill="white"/>
<path d="M145.121 31.2171C145.121 31.2171 127.009 27.7331 92.3095 31.2171C92.3095 31.2171 85.3167 15.5045 76.0893 5.30157C76.0893 5.30157 98.5308 1.90722 120.027 5.30157C129.383 12.9216 137.806 21.6204 145.121 31.2171Z" fill="white"/>
</g>
<path opacity="0.2" d="M82.624 3.7922C82.624 3.7922 102.034 2.752 112.745 3.72253C123.456 4.69305 125.317 9.09277 125.317 9.09277C122.46 7.95829 119.511 7.07078 116.503 6.44C116.503 7.38564 116.463 8.8041 116.075 9.35655C115.781 9.76965 111.277 9.21221 110.356 8.69958C109.734 8.35118 108.943 6.62912 108.495 5.54413C98.9885 4.79757 82.624 3.7922 82.624 3.7922ZM110.794 7.99284C111.157 8.14215 114.527 8.78419 115.423 8.6299C115.682 8.5851 115.726 7.34084 115.716 6.29566C115.184 6.2011 114.646 6.11649 114.114 6.05179C113.118 5.93732 111.511 5.788 109.49 5.62376C109.938 6.6789 110.476 7.85846 110.794 7.99284Z" fill="black"/>
<path opacity="0.2" d="M34.1676 22.8102C34.8087 21.5979 35.8898 20.6771 37.1886 20.237C37.1886 20.237 36.3027 14.5433 37.1886 13.6623C38.0746 12.7814 45.789 13.0203 47.521 13.6623C48.7702 14.1202 49.6761 17.206 50.0842 18.8932H74.6907C74.4867 17.1513 74.2577 14.2695 74.8649 13.6623C75.7508 12.7764 83.4702 13.0203 85.2022 13.6623C86.9343 14.3044 88.0093 20.018 88.0093 20.018C89.4012 20.2863 90.7075 20.8873 91.8167 21.77C93.8076 23.2631 95.5545 37.9354 95.5545 37.9354H34.735C34.735 37.9354 33.2269 24.7612 34.1676 22.8102Z" fill="black"/>
<path d="M115.711 37.024C115.711 37.024 113.94 22.3666 111.979 20.8586C110.868 19.9736 109.56 19.3708 108.166 19.1017C108.166 19.1017 107.091 13.4129 105.359 12.7709C103.627 12.1288 95.9028 11.8899 95.0268 12.7709C94.1509 13.6518 95.0268 19.3456 95.0268 19.3456C93.7288 19.7849 92.6491 20.7061 92.0108 21.9187C91.0651 23.8747 92.5732 37.024 92.5732 37.024H115.711Z" fill="#263238"/>
<path opacity="0.4" d="M115.711 37.024C115.711 37.024 113.94 22.3666 111.979 20.8586C110.868 19.9736 109.56 19.3708 108.166 19.1017C108.166 19.1017 107.091 13.4129 105.359 12.7709C103.627 12.1288 95.9028 11.8899 95.0268 12.7709C94.1509 13.6518 95.0268 19.3456 95.0268 19.3456C93.7288 19.7849 92.6491 20.7061 92.0108 21.9187C91.0651 23.8747 92.5732 37.024 92.5732 37.024H115.711Z" fill="white"/>
<path opacity="0.2" d="M103.856 31.1018C103.174 33.0927 101.437 34.6107 99.77 35.4966C99.3719 33.9338 98.8045 32.0126 98.0231 29.6884C99.0732 28.2251 100.537 27.1998 102.398 27.4686C102.398 27.4835 104.548 29.0662 103.856 31.1018Z" fill="black"/>
<path opacity="0.2" d="M97.6996 30.7912C98.4661 34.076 99.7601 38.6101 100.014 39.9489C100.551 39.9738 101.084 39.9888 101.552 39.9937C101.925 38.6848 102.293 37.2812 102.597 35.9474C102.741 35.3253 102.871 34.7181 102.98 34.1457C102.323 33.8869 101.422 33.5236 101.074 33.3444C100.507 33.0607 100.701 27.7402 100.701 27.7402C99.4621 28.4916 98.4305 29.5403 97.6996 30.7912Z" fill="black"/>
<path d="M110.734 37.9355L109.973 38.2988C109.833 38.3674 109.678 38.4009 109.522 38.3966C109.366 38.3923 109.213 38.3502 109.077 38.2739L107.778 37.5572C107.523 37.415 107.305 37.2139 107.143 36.9706C106.982 36.7274 106.88 36.449 106.847 36.1587L106.808 35.7954C108.027 35.1036 109.853 35.2578 109.853 35.2578H110.381C110.489 35.2525 110.597 35.2685 110.698 35.3049C110.8 35.3412 110.894 35.3973 110.974 35.4699C111.054 35.5425 111.119 35.6302 111.165 35.7278C111.211 35.8255 111.237 35.9314 111.242 36.0392L111.282 37.0794C111.282 37.2596 111.231 37.436 111.134 37.5878C111.037 37.7395 110.898 37.8602 110.734 37.9355Z" fill="#E4897B"/>
<path d="M97.1721 27.359C96.8205 28.8414 96.6006 30.352 96.5151 31.8732C96.4619 32.6899 96.4869 33.5099 96.5898 34.3219C96.6509 34.8231 96.7798 35.3137 96.973 35.7802C97.1147 36.1037 97.3043 36.404 97.5354 36.6711C97.6802 36.8409 97.8477 36.9899 98.0331 37.114C98.1328 37.1805 98.2376 37.2387 98.3467 37.2882L98.5259 37.3629C99.3508 37.6495 100.216 37.8041 101.089 37.8208C101.856 37.8487 102.624 37.8288 103.388 37.761C104.869 37.6333 106.337 37.387 107.778 37.0244C107.979 36.9748 108.155 36.8536 108.273 36.6835C108.391 36.5133 108.443 36.306 108.42 36.1003C108.396 35.8947 108.298 35.7047 108.144 35.5661C107.99 35.4274 107.791 35.3496 107.584 35.3472H107.554C106.862 35.3472 106.146 35.3472 105.449 35.3024C104.752 35.2576 104.05 35.2576 103.364 35.2028C102.677 35.1481 102.005 35.0834 101.373 34.9838C100.814 34.9092 100.268 34.7584 99.7502 34.5359L99.6855 34.5011L99.7652 34.5409C99.8084 34.5639 99.8485 34.5923 99.8846 34.6255C99.9294 34.6653 99.9194 34.6504 99.8846 34.5956C99.8319 34.3887 99.8002 34.1769 99.79 33.9635C99.7667 33.3474 99.7867 32.7304 99.8498 32.1171C99.9095 31.4651 100.009 30.7932 100.119 30.1262C100.228 29.4593 100.352 28.7625 100.472 28.1354V28.0807C100.554 27.6411 100.461 27.1867 100.213 26.8148C99.9642 26.4429 99.5801 26.183 99.1424 26.0907C98.7048 25.9983 98.2484 26.0809 97.8709 26.3207C97.4934 26.5605 97.2247 26.9386 97.1223 27.3739L97.1721 27.359Z" fill="#E4897B"/>
<path d="M83.7539 37.024C83.7539 37.024 81.9821 22.3666 80.0211 20.8586C78.9109 19.9736 77.6027 19.3708 76.2087 19.1017C76.2087 19.1017 75.1336 13.4129 73.4016 12.7709C71.6696 12.1288 63.9452 11.8899 63.0693 12.7709C62.1933 13.6518 63.0693 19.3456 63.0693 19.3456C61.7712 19.7849 60.6915 20.7061 60.0532 21.9187C59.1075 23.8747 60.6156 37.024 60.6156 37.024H83.7539Z" fill="#263238"/>
<path opacity="0.4" d="M83.7539 37.024C83.7539 37.024 81.9821 22.3666 80.0211 20.8586C78.9109 19.9736 77.6027 19.3708 76.2087 19.1017C76.2087 19.1017 75.1336 13.4129 73.4016 12.7709C71.6696 12.1288 63.9452 11.8899 63.0693 12.7709C62.1933 13.6518 63.0693 19.3456 63.0693 19.3456C61.7712 19.7849 60.6915 20.7061 60.0532 21.9187C59.1075 23.8747 60.6156 37.024 60.6156 37.024H83.7539Z" fill="white"/>
<path d="M92.837 31.301L95.4051 30.0518L95.4599 33.6651C95.4599 33.6651 93.041 34.2375 92.603 32.9783L92.837 31.301Z" fill="#FFB573"/>
<path d="M97.6947 30.5395L97.6001 33.5307L95.46 33.6651L95.4052 30.0518L97.6947 30.5395Z" fill="#FFB573"/>
<path d="M88.1535 30.8225L89.562 31.0863L89.4575 34.834L88.1187 35.2173L88.1535 30.8225Z" fill="#263238"/>
<path d="M92.4688 39.5473C93.3367 39.5437 94.1974 39.3887 95.0121 39.0894C96.9304 38.3614 98.5092 36.9456 99.4412 35.1176C100.373 33.2896 100.592 31.1802 100.054 29.2C99.7971 28.2474 99.3434 27.3592 98.722 26.5929C98.1006 25.8266 97.3254 25.1992 96.4463 24.7512C95.5673 24.3033 94.6041 24.0447 93.6189 23.9923C92.6337 23.9399 91.6484 24.0948 90.7268 24.447C88.8085 25.175 87.2296 26.5908 86.2977 28.4188C85.3658 30.2468 85.1474 32.3562 85.6851 34.3363C85.9452 35.2877 86.4003 36.1745 87.0214 36.9405C87.6426 37.7065 88.4163 38.3349 89.2934 38.7858C90.2766 39.2876 91.365 39.5486 92.4688 39.5473ZM93.2651 25.4224C94.1454 25.4194 95.0137 25.6259 95.7984 26.0247C96.4996 26.3877 97.1178 26.8922 97.6138 27.5065C98.1099 28.1208 98.473 28.8313 98.6802 29.5932C99.1173 31.2273 98.9327 32.9655 98.1623 34.4714C97.3919 35.9773 96.0903 37.144 94.5094 37.7456C93.7728 38.0319 92.9841 38.1596 92.1949 38.1203C91.4056 38.0811 90.6335 37.8758 89.929 37.5179C89.2244 37.16 88.6033 36.6575 88.1062 36.0432C87.609 35.429 87.247 34.7168 87.0438 33.9531C86.6032 32.3215 86.7838 30.5844 87.5507 29.0783C88.3175 27.5722 89.616 26.4043 91.1947 25.8007C91.8568 25.5522 92.5579 25.4241 93.2651 25.4224Z" fill="#263238"/>
<path d="M84.3959 37.721C85.9288 33.9434 91.2145 28.7922 92.8569 27.4235C94.4993 26.0548 98.8642 25.5372 106.469 25.7612C108.988 25.8728 111.448 26.5535 113.666 27.752C119.529 27.7968 129.174 27.9212 133.116 28.2497C136.028 28.5035 143.673 29.3148 144.335 32.1119C144.996 34.909 140.751 41.5981 140.353 41.5981H118.623C118.606 41.9551 118.536 42.3074 118.414 42.6433C118.1 42.9021 93.8374 44.7088 93.8374 44.7088C93.8374 44.7088 82.863 41.5036 84.3959 37.721Z" fill="#263238"/>
<path opacity="0.3" d="M84.3959 37.721C85.9288 33.9434 91.2145 28.7922 92.8569 27.4235C94.4993 26.0548 98.8642 25.5372 106.469 25.7612C108.988 25.8728 111.448 26.5535 113.666 27.752C119.529 27.7968 129.174 27.9212 133.116 28.2497C136.028 28.5035 143.673 29.3148 144.335 32.1119C144.996 34.909 140.751 41.5981 140.353 41.5981H118.623C118.606 41.9551 118.536 42.3074 118.414 42.6433C118.1 42.9021 93.8374 44.7088 93.8374 44.7088C93.8374 44.7088 82.863 41.5036 84.3959 37.721Z" fill="white"/>
<g opacity="0.3">
<path d="M28.1103 27.2302C30.9224 27.3446 33.7444 27.494 36.5415 27.6681L37.1984 27.7129L38.4327 27.7926L39.02 27.8324C42.9021 28.0962 46.7345 28.4048 50.4673 28.7432C46.7494 19.3963 44.2012 11.1941 43.9971 10.5521C46.2069 15.9372 51.2735 21.2278 51.2735 21.2278C48.6901 15.898 46.5397 10.3689 44.8432 4.69409C42.6732 4.94294 41.2746 5.19179 40.8217 5.27142L40.6575 5.30128C40.6561 5.31119 40.6561 5.32125 40.6575 5.33115C40.5181 5.50037 40.3788 5.66627 40.2394 5.82886L40.0802 6.03789C32.8386 15.3151 28.1103 27.2302 28.1103 27.2302Z" fill="white"/>
<path d="M122.48 19.0935C115.124 14.7933 108.166 11.2099 107.549 10.8814C115.403 15.296 124.391 23.6873 130.444 29.8439C140.164 30.257 145.136 31.2176 145.136 31.2176C137.818 21.6214 129.394 12.9227 120.037 5.30209C112.915 4.23808 105.721 3.73882 98.5207 3.80897C111.128 9.31857 122.062 18.7352 122.48 19.0935Z" fill="white"/>
</g>
<path d="M76.776 60.1672H83.4104C90.7864 60.1672 96.7639 68.4291 96.7639 78.6221C96.7639 88.8151 90.7914 97.077 83.4104 97.077H76.776C69.4 97.077 63.4226 88.8151 63.4226 78.6221C63.4226 68.4291 69.4 60.1672 76.776 60.1672Z" fill="#263238"/>
<path opacity="0.1" d="M74.6857 95.7682C68.523 95.7682 63.5271 88.0917 63.5271 78.6223C63.5271 69.1528 68.523 61.4763 74.6857 61.4763C80.8484 61.4763 85.8442 69.1528 85.8442 78.6223C85.8442 88.0917 80.8484 95.7682 74.6857 95.7682Z" fill="white"/>
<path opacity="0.6" d="M73.7201 69.3563C77.0498 69.3563 79.7473 73.5071 79.7473 78.6235C79.7473 83.7399 77.0498 87.8908 73.7201 87.8908C70.3905 87.8908 67.6879 83.7399 67.6879 78.6235C67.6879 73.5071 70.3905 69.3563 73.7201 69.3563Z" fill="#263238"/>
<path d="M153.159 60.1672H159.793C167.174 60.1672 173.147 68.4291 173.147 78.6221C173.147 88.8151 167.174 97.077 159.793 97.077H153.159C145.783 97.077 139.8 88.8151 139.8 78.6221C139.8 68.4291 145.773 60.1672 153.159 60.1672Z" fill="#263238"/>
<path opacity="0.1" d="M151.068 95.7682C144.906 95.7682 139.91 88.0917 139.91 78.6223C139.91 69.1528 144.906 61.4763 151.068 61.4763C157.231 61.4763 162.227 69.1528 162.227 78.6223C162.227 88.0917 157.231 95.7682 151.068 95.7682Z" fill="white"/>
<path opacity="0.6" d="M150.098 87.8908C146.769 87.8908 144.071 83.7417 144.071 78.6235C144.071 73.5054 146.769 69.3563 150.098 69.3563C153.427 69.3563 156.125 73.5054 156.125 78.6235C156.125 83.7417 153.427 87.8908 150.098 87.8908Z" fill="#263238"/>
<path d="M16.4791 58.6153L16.3845 77.6077C16.3793 78.33 16.517 79.0462 16.7898 79.715C17.0626 80.3838 17.465 80.9921 17.9739 81.5047C18.4828 82.0173 19.0881 82.4241 19.755 82.7017C20.4218 82.9794 21.137 83.1223 21.8593 83.1223H70.276C72.2903 85.1698 74.6918 86.7964 77.3406 87.9071C79.9894 89.0179 82.8326 89.5908 85.7049 89.5924H116.692L120.216 84.3068H127.268L128.204 85.1927C130.803 87.6406 134.24 89.0011 137.81 88.9952C139.683 88.9914 141.536 88.611 143.258 87.8765C144.981 87.1421 146.539 86.0686 147.838 84.7199L148.261 84.2769H164.377C165.666 84.2773 166.914 83.8228 167.901 82.9934C168.888 82.164 169.551 81.0129 169.772 79.7428L174.077 55.0069L16.4791 58.6153Z" fill="#263238"/>
<path d="M12.5522 55.0213L15.1353 53.1201C17.4844 38.2735 20.8489 31.7188 20.8489 31.7188L26.682 26.7417C28.9267 18.644 37.0542 5.05171 41.3245 3.48394H41.3494C42.0412 3.30476 57.6492 0 82.0567 0C112.606 0 121.375 5.12139 121.375 5.12139C133.509 14.0502 147.395 31.3604 147.395 31.3604C154.66 34.0424 161.366 38.0449 167.174 43.166C167.826 43.7483 168.473 44.3605 169.105 44.9925C169.648 45.5301 170.185 46.0875 170.703 46.6648C171.101 47.1028 171.494 47.5507 171.878 48.0086C173.232 49.6546 174.401 51.4457 175.361 53.349C175.997 54.5963 176.569 55.8754 177.074 57.1813C177.263 57.679 177.427 58.132 177.571 58.5749C177.666 58.8486 179.935 61.4765 179.935 61.4765C181.254 62.1932 179.507 72.8391 177.133 78.3388C176.973 78.704 176.71 79.0145 176.376 79.2321C176.041 79.4496 175.651 79.5647 175.252 79.5631H111.829C111.72 66.6626 104.075 56.2556 94.6536 56.2556C85.2321 56.2556 77.5973 66.6626 77.4828 79.5631H48.377C48.2675 66.6626 40.6227 56.2556 31.2012 56.2556C29.3251 56.2617 27.4726 56.6744 25.7712 57.465C19.3807 60.3866 14.6624 68.325 14.0901 77.8709C14.0901 78.0252 14.0901 78.1895 14.0602 78.3438C13.8921 78.1679 13.7435 77.9744 13.6173 77.7664C13.3985 77.6568 13.205 77.5028 13.0491 77.3143C12.8931 77.1258 12.7781 76.9069 12.7114 76.6715C10.2677 70.042 12.5522 55.0213 12.5522 55.0213ZM145.126 31.2111C137.806 21.6186 129.381 12.9218 120.027 5.30056C98.5307 1.90123 76.0892 5.30056 76.0892 5.30056C85.3167 15.5035 92.3094 31.2111 92.3094 31.2111C127.009 27.7122 145.126 31.2111 145.126 31.2111ZM88.0839 33.3462C83.933 17.4844 72.7645 5.30056 72.7645 5.30056C67.8361 4.57102 62.8648 4.16866 57.8832 4.09611C57.5049 6.99773 56.7185 14.6325 56.5394 29.3347C74.3871 31.1464 88.0839 33.3462 88.0839 33.3462ZM36.5416 27.6724L37.1985 27.7122L38.4328 27.7968L39.0201 27.8317C44.261 28.185 49.4172 28.628 54.2997 29.1058C54.4888 23.0039 54.9467 11.6861 55.9571 4.08118C50.8839 4.04291 45.8168 4.44088 40.8119 5.27069L40.6476 5.30056C40.6462 5.31046 40.6462 5.32052 40.6476 5.33042C40.5083 5.49964 40.3689 5.67882 40.2296 5.82813L40.0703 6.03717C32.8585 15.2895 28.1254 27.2095 28.1254 27.2095C30.9225 27.3489 33.7445 27.4833 36.5416 27.6724Z" fill="#E85816"/>
<path d="M94.3998 60.1672H101.039C108.415 60.1672 114.393 68.4291 114.393 78.6221C114.393 88.8151 108.42 97.077 101.039 97.077H94.3998C87.0288 97.077 81.0464 88.8151 81.0464 78.6221C81.0464 68.4291 87.0438 60.1672 94.3998 60.1672Z" fill="#263238"/>
<path opacity="0.2" d="M92.3095 95.7682C86.1468 95.7682 81.1509 88.0917 81.1509 78.6223C81.1509 69.1528 86.1468 61.4763 92.3095 61.4763C98.4722 61.4763 103.468 69.1528 103.468 78.6223C103.468 88.0917 98.4722 95.7682 92.3095 95.7682Z" fill="white"/>
<path opacity="0.6" d="M91.3439 69.3563C94.6735 69.3563 97.3761 73.5071 97.3761 78.6235C97.3761 83.7399 94.6735 87.8908 91.3439 87.8908C88.0142 87.8908 85.3167 83.7399 85.3167 78.6235C85.3167 73.5071 88.0142 69.3563 91.3439 69.3563Z" fill="white"/>
<path d="M32.1221 60.1672H38.7665C46.1425 60.1672 52.1199 68.4291 52.1199 78.6221C52.1199 88.8151 46.1474 97.077 38.7665 97.077H32.1321C24.7561 97.077 18.7786 88.8151 18.7786 78.6221C18.7786 68.4291 24.7461 60.1672 32.1221 60.1672Z" fill="#263238"/>
<path opacity="0.2" d="M30.0316 95.7682C23.8689 95.7682 18.8731 88.0917 18.8731 78.6223C18.8731 69.1528 23.8689 61.4763 30.0316 61.4763C36.1943 61.4763 41.1902 69.1528 41.1902 78.6223C41.1902 88.0917 36.1943 95.7682 30.0316 95.7682Z" fill="white"/>
<path opacity="0.6" d="M29.066 87.8908C25.7373 87.8908 23.0388 83.7417 23.0388 78.6235C23.0388 73.5054 25.7373 69.3563 29.066 69.3563C32.3948 69.3563 35.0932 73.5054 35.0932 78.6235C35.0932 83.7417 32.3948 87.8908 29.066 87.8908Z" fill="white"/>
<path d="M167.926 80.2893L165.995 70.9573C165.904 70.5033 165.659 70.0949 165.3 69.8024C164.941 69.5099 164.492 69.3516 164.029 69.3547H150.197C149.557 69.3538 148.93 69.5337 148.388 69.8735C147.845 70.2134 147.41 70.6995 147.132 71.2759L142.752 80.2893H167.926Z" fill="#263238"/>
<path opacity="0.7" d="M106.703 52.1938L116.075 58.0966L135.983 62.3818H168.931L177.626 58.5744C177.472 58.1314 177.308 57.6686 177.128 57.1808C176.624 55.8749 176.052 54.5958 175.416 53.3485C175.386 53.2888 175.357 53.229 175.322 53.1693C174.374 51.3312 173.231 49.6008 171.912 48.0081C171.529 47.5502 171.136 47.1023 170.738 46.6643C166.721 47.6597 165.378 52.1938 165.378 52.1938L164.641 59.2413L164.427 61.2869H141.841L140.428 59.2513L135.51 52.1938C135.51 52.1938 128.732 48.6103 123.003 47.4855C118.439 46.5897 109.739 46.4901 109.739 46.4901C107.201 47.4805 106.703 52.1938 106.703 52.1938Z" fill="white"/>
<path d="M119.698 53.7974C119.922 55.5692 121.241 56.8582 122.645 56.6841C124.048 56.5099 125.004 54.9222 124.775 53.1503C124.546 51.3785 123.232 50.0845 121.828 50.2636C120.425 50.4428 119.474 52.0255 119.698 53.7974Z" fill="white"/>
<path d="M127.289 57.3889C126.195 55.0544 126.804 52.46 128.651 51.5942C130.498 50.7284 132.882 51.9189 133.976 54.2534C135.071 56.5879 134.461 59.1822 132.615 60.0481C130.768 60.9139 128.384 59.7233 127.289 57.3889Z" fill="white"/>
<path d="M165.926 57.387C164.832 55.0526 165.442 52.4582 167.288 51.5924C169.135 50.7265 171.519 51.9171 172.614 54.2516C173.708 56.5861 173.099 59.1804 171.252 60.0462C169.405 60.9121 167.021 59.7215 165.926 57.387Z" fill="white"/>
<path d="M170.658 51.0052C171.23 51.2398 171.747 51.5911 172.175 52.0367C172.604 52.4824 172.935 53.0125 173.147 53.5932C173.386 54.1881 173.507 54.8236 173.505 55.4646C173.573 55.4644 173.641 55.4508 173.704 55.4248C174.491 55.1063 174.595 53.5136 173.933 51.8463C173.271 50.179 172.102 49.099 171.315 49.4125C170.877 49.5917 170.658 50.2039 170.658 51.0052Z" fill="white"/>
<path d="M125.412 68.8669L124.232 69.1506C124.003 69.2054 123.803 69.3454 123.672 69.5422C123.542 69.739 123.491 69.978 123.531 70.2107L124.571 76.4918C124.607 76.7093 124.72 76.9068 124.889 77.049C125.057 77.1912 125.271 77.2689 125.492 77.2682H134.823C135.071 77.2682 135.308 77.1703 135.483 76.9959C135.659 76.8215 135.758 76.5848 135.759 76.3375C135.76 76.1193 135.684 75.9079 135.545 75.7397C135.405 75.5716 135.212 75.4573 134.998 75.4167C133.505 75.138 129.971 73.9784 126.397 69.2253C126.288 69.074 126.135 68.9589 125.96 68.8951C125.784 68.8312 125.593 68.8214 125.412 68.8669Z" fill="#484747"/>
<path d="M125.412 68.8686L132.853 68.8438L125.412 70.735V68.8686Z" fill="#484747"/>
<path d="M173.147 68.8438L178.701 69.3415L175.924 77.7527H171.574L172.525 75.6175C174.447 74.5004 175.944 72.7758 176.78 70.7151L173.147 68.8438Z" fill="#484747"/>
<path opacity="0.7" d="M125.307 74.9587C125.307 76.0088 126.004 76.8599 126.865 76.8599C127.726 76.8599 128.418 76.0088 128.418 74.9587C128.418 73.9085 127.721 73.0574 126.865 73.0574C126.009 73.0574 125.307 73.9085 125.307 74.9587Z" fill="white"/>
<path opacity="0.7" d="M174.416 75.0033C174.132 75.9987 174.282 76.9393 174.749 77.0687C175.217 77.1981 175.824 76.4864 176.108 75.4711C176.392 74.4558 176.242 73.535 175.775 73.4056C175.307 73.2762 174.695 73.988 174.416 75.0033Z" fill="white"/>
<path opacity="0.7" d="M152.646 55.0215H156.459C156.532 55.0218 156.605 55.0395 156.67 55.0732C156.736 55.1068 156.792 55.1554 156.836 55.2151C156.879 55.2747 156.907 55.3437 156.919 55.4165C156.93 55.4892 156.924 55.5636 156.902 55.6337L155.792 59.0927C155.766 59.1741 155.718 59.2469 155.654 59.3031C155.59 59.3594 155.511 59.397 155.427 59.4119C155.343 59.4267 155.257 59.4183 155.177 59.3875C155.097 59.3567 155.028 59.3046 154.975 59.237L152.278 55.778C152.224 55.709 152.19 55.6261 152.181 55.5388C152.172 55.4516 152.187 55.3634 152.225 55.2846C152.264 55.2057 152.324 55.1391 152.398 55.0926C152.472 55.0461 152.558 55.0215 152.646 55.0215ZM153.806 55.8527L155.155 57.5847C155.181 57.6184 155.216 57.6443 155.256 57.6596C155.296 57.6748 155.339 57.6788 155.381 57.6711C155.423 57.6634 155.463 57.6443 155.495 57.6159C155.527 57.5875 155.55 57.5509 155.563 57.51L156.12 55.783C156.131 55.7476 156.133 55.7103 156.127 55.6738C156.121 55.6374 156.107 55.6028 156.085 55.5729C156.063 55.543 156.035 55.5186 156.002 55.5015C155.969 55.4844 155.933 55.4751 155.896 55.4744H153.99C153.946 55.4744 153.903 55.4867 153.866 55.51C153.829 55.5332 153.799 55.5665 153.78 55.6059C153.76 55.6454 153.753 55.6894 153.757 55.7331C153.762 55.7767 153.779 55.8181 153.806 55.8527Z" fill="white"/>
<path opacity="0.2" d="M106.703 52.1942L116.075 58.097L135.983 62.3822H168.931L177.626 58.5748C177.472 58.1318 177.307 57.669 177.128 57.1812C176.601 55.8124 176 54.4732 175.327 53.1697L176.004 57.3455C176.061 57.7016 176 58.0669 175.829 58.3846C175.658 58.7023 175.387 58.9546 175.058 59.1024L170.081 61.3271C169.684 61.5067 169.248 61.5843 168.814 61.553C168.379 61.5217 167.959 61.3825 167.592 61.1479L164.606 59.2268L164.392 61.2724H141.806L140.393 59.2367L137.247 61.347C136.986 61.5236 136.692 61.6459 136.382 61.7066C136.073 61.7673 135.754 61.7652 135.446 61.7004L117.737 57.9477C117.2 57.833 116.702 57.5791 116.294 57.2113C115.886 56.8435 115.582 56.3748 115.413 55.8523L114.383 52.5128C114.242 52.0552 114.245 51.5656 114.39 51.1095C114.535 50.6533 114.815 50.2522 115.194 49.9595L117.742 47.9687C113.178 47.0728 109.724 46.4756 109.724 46.4756C107.201 47.481 106.703 52.1942 106.703 52.1942Z" fill="black"/>
<path d="M164.621 59.2413H163.68L163.496 60.7394H142.752L141.717 59.2413L140.408 59.2513L141.821 61.2869H164.407L164.621 59.2413Z" fill="#263238"/>
<path d="M165.472 62.3816L164.621 61.7744H141.717L141.194 62.3816H165.472Z" fill="#263238"/>
<path opacity="0.2" d="M12.5522 55.0224L15.1353 53.1212C15.7701 48.9913 16.6224 44.8978 17.6885 40.8578C19.2115 35.1789 20.5653 32.2773 20.8092 31.7746C20.8201 31.7486 20.8334 31.7236 20.849 31.7L26.6821 26.7229C28.9267 18.6203 37.0543 5.03296 41.3246 3.46519H41.3494C64.2688 0.528726 73.7003 4.0674 73.7003 4.0674C85.6999 18.6999 90.6222 33.3325 90.6222 33.3325C97.3868 37.0839 103.774 41.4791 109.694 46.4569C109.197 51.0458 112.427 55.7989 112.427 55.7989L116.05 58.0833L115.667 63.364C117.931 70.526 121.51 79.5444 121.51 79.5444H111.805C111.695 66.6488 104.05 56.2418 94.6288 56.2418C85.2072 56.2418 77.5724 66.6488 77.4579 79.5444H48.3522C48.2427 66.6488 40.5979 56.2418 31.1764 56.2418C29.3006 56.2462 27.4481 56.6572 25.7464 57.4463C19.3559 60.3678 14.6376 68.3112 14.0653 77.8522C14.0653 78.0114 14.0653 78.1707 14.0354 78.3499C13.8672 78.1723 13.7187 77.9771 13.5924 77.7676C13.3733 77.6598 13.1794 77.507 13.0233 77.3192C12.8672 77.1313 12.7525 76.9127 12.6866 76.6776C10.2678 70.0432 12.5522 55.0224 12.5522 55.0224ZM88.0839 33.3474C83.9331 17.4855 72.7646 5.30171 72.7646 5.30171C67.836 4.57318 62.8648 4.16917 57.8832 4.09229C57.505 6.99889 56.7186 14.6337 56.5394 29.3359C74.3871 31.1475 88.0839 33.3474 88.0839 33.3474ZM36.5416 27.6686L37.1986 27.7134L38.4329 27.793L39.0202 27.8328C44.261 28.1862 49.4172 28.6292 54.2997 29.107C54.4889 23.0051 54.9467 11.6574 55.9571 4.08234C50.8838 4.04122 45.8165 4.43921 40.8119 5.27185L40.6477 5.30171C40.6462 5.31161 40.6462 5.32168 40.6477 5.33158C40.5083 5.5008 40.369 5.6667 40.2296 5.82928L40.0703 6.03832C32.8586 15.2907 28.1254 27.2057 28.1254 27.2057C30.9225 27.3451 33.7445 27.4844 36.5416 27.6686Z" fill="black"/>
<path d="M36.5416 27.672L37.1986 27.7118C38.7465 15.0402 40.0305 8.49042 40.8119 5.27026L40.6477 5.30012C40.6463 5.31003 40.6463 5.32009 40.6477 5.32999C40.5083 5.49921 40.369 5.67839 40.2296 5.8277C38.2687 14.4529 37.1289 22.7646 36.5416 27.672Z" fill="#484747"/>
<path d="M117.444 79.5585H112.899C111.929 79.5612 110.985 79.2357 110.223 78.6349C109.46 78.0341 108.923 77.1932 108.699 76.2487C107.519 71.2717 104.065 62.1388 94.3998 60.1679C84.2167 58.0924 80.8523 70.2215 79.812 76.2736C79.6558 77.1917 79.18 78.0251 78.4687 78.6262C77.7573 79.2273 76.8563 79.5576 75.925 79.5585H74.835C74.835 79.5585 74.835 50.0047 96.1368 52.324C111.167 53.9665 115.413 76.3582 115.413 76.3582L117.444 79.5585Z" fill="#E85816"/>
<path opacity="0.2" d="M117.444 79.5585H112.899C111.929 79.5612 110.985 79.2357 110.223 78.6349C109.46 78.0341 108.923 77.1932 108.699 76.2487C107.519 71.2717 104.065 62.1388 94.3998 60.1679C84.2168 58.0924 80.8523 70.2215 79.8121 76.2736C79.6559 77.1917 79.18 78.0251 78.4687 78.6262C77.7573 79.2273 76.8563 79.5576 75.925 79.5585H74.835C74.835 79.5585 74.835 50.0047 96.1368 52.324C111.167 53.9665 115.413 76.3582 115.413 76.3582L117.444 79.5585Z" fill="black"/>
<path d="M55.1657 79.5585H50.6167C49.6467 79.5601 48.7047 79.2341 47.9431 78.6334C47.1816 78.0326 46.6453 77.1924 46.421 76.2487C45.2365 71.2717 41.7824 62.1388 32.1219 60.1679C21.9389 58.0924 18.5694 70.2215 17.5292 76.2736C17.3749 77.1926 16.8996 78.0271 16.1878 78.6286C15.4761 79.23 14.574 79.5595 13.6422 79.5585H12.5522C12.5522 79.5585 12.5522 50.0047 33.8589 52.324C48.8847 53.9665 53.1351 76.3582 53.1351 76.3582L55.1657 79.5585Z" fill="#E85816"/>
<path opacity="0.2" d="M55.1657 79.5585H50.6167C49.6467 79.5601 48.7047 79.2341 47.9432 78.6334C47.1816 78.0326 46.6453 77.1924 46.421 76.2487C45.2365 71.2717 41.7824 62.1388 32.122 60.1679C21.9389 58.0924 18.5694 70.2215 17.5292 76.2736C17.3749 77.1926 16.8996 78.0271 16.1878 78.6286C15.4761 79.23 14.574 79.5595 13.6422 79.5585H12.5522C12.5522 79.5585 12.5522 50.0047 33.859 52.324C48.8847 53.9665 53.1351 76.3582 53.1351 76.3582L55.1657 79.5585Z" fill="black"/>
<path opacity="0.2" d="M92.9117 52.2255C90.2788 52.0114 87.626 52.8874 85.3615 54.266C83.1031 55.7108 81.1762 57.6174 79.7076 59.8602C78.2361 62.0862 77.0521 64.4892 76.1838 67.0123C75.3262 69.523 74.6607 72.0952 74.193 74.7068L74.8499 74.1593L63.4873 74.1095L52.1247 74.1494L52.7867 74.6769C52.1063 72.0305 51.1902 69.4504 50.0493 66.9675C48.9209 64.4807 47.5168 62.1284 45.8636 59.9548C44.2151 57.7703 42.1726 55.9135 39.8414 54.4801C38.6651 53.7894 37.4124 53.2382 36.1086 52.8376C34.8118 52.4697 33.4744 52.2641 32.1269 52.2255C33.4576 52.3805 34.7676 52.6792 36.0339 53.1164C37.2781 53.5832 38.4639 54.1928 39.5676 54.933C41.7348 56.4589 43.6166 58.3541 45.127 60.5322C46.6556 62.7004 47.944 65.0284 48.9693 67.4751C50.0264 69.9015 50.8674 72.4164 51.4827 74.9905L51.6071 75.5181H52.1397L63.5023 75.5579L74.8649 75.5081H75.3974L75.487 74.9606C75.9077 72.4039 76.5115 69.8807 77.2937 67.4104C78.0664 64.9474 79.1325 62.5863 80.469 60.3779C81.8022 58.1669 83.5638 56.2447 85.6502 54.7239C87.766 53.183 90.2956 52.3126 92.9117 52.2255Z" fill="black"/>
<path d="M115.692 63.3782C115.692 63.3782 101.691 50.3682 88.0839 53.3245C88.0839 53.3245 94.3799 50.0994 106.703 52.1947L117.444 59.2422L115.692 63.3782Z" fill="#E85816"/>
<path d="M87.0437 37.0239C87.0437 37.0239 32.7392 30.5985 20.849 31.6984L25.5374 27.7168C25.5374 27.7168 80.3247 31.6337 87.0437 37.0239Z" fill="#E85816"/>
<path opacity="0.7" d="M17.6885 40.8562C20.2965 36.0086 23.0339 34.6399 23.0339 34.6399L26.1196 30.1904C24.2363 30.2114 22.3966 30.7597 20.8091 31.7731C20.5652 32.2758 19.2115 35.1774 17.6885 40.8562Z" fill="white"/>
<path d="M71.7492 34.6848C71.7492 35.6802 81.9422 37.3674 82.1065 37.3674C82.2707 37.3674 84.2516 37.024 84.2516 37.024L87.8749 37.3674C87.9856 37.2559 88.0765 37.1263 88.1436 36.9842C88.2889 36.6814 88.3751 36.3537 88.3975 36.0186C88.4028 35.9125 88.4028 35.8062 88.3975 35.7001C88.3857 34.9048 88.2754 34.1141 88.069 33.346C87.323 33.4134 86.5711 33.33 85.858 33.1009C85.1449 32.8717 84.4852 32.5015 83.9181 32.0121C83.3905 30.7081 82.6739 29.2897 81.8875 28.6775C81.8875 28.6775 74.7205 29.1752 73.2224 30.0412C71.7542 30.9122 71.7492 34.6848 71.7492 34.6848Z" fill="#484747"/>
<path d="M71.7493 34.6848L72.1375 34.3513C72.1375 34.3513 83.3061 36.6159 83.3956 34.3513C83.4852 32.0868 81.9025 28.6775 81.9025 28.6775C81.9025 28.6775 74.6908 29.1752 73.2226 30.0512C71.7543 30.9271 71.7493 34.6848 71.7493 34.6848Z" fill="#E85816"/>
<path opacity="0.2" d="M71.7493 34.6856C71.7493 35.681 81.9423 37.3682 82.1065 37.3682C82.2708 37.3682 84.2516 37.0248 84.2516 37.0248L87.8749 37.3682C87.9856 37.2566 88.0765 37.127 88.1437 36.985C88.289 36.6822 88.3751 36.3545 88.3975 36.0194L84.2516 35.2131L83.3607 34.1033C80.3646 34.0664 77.3732 33.8537 74.402 33.4662C74.224 33.4396 74.0618 33.3493 73.9455 33.2119C73.8292 33.0746 73.7668 32.8996 73.77 32.7196C73.77 32.1174 73.77 31.2265 73.77 30.8184C73.7082 30.506 73.5304 30.2285 73.2722 30.042C71.7542 30.913 71.7493 34.6856 71.7493 34.6856Z" fill="#484747"/>
</svg>
